<svg style="position: absolute; width: 0; height: 0;" width="0" height="0" version="1.1" xmlns="http://www.w3.org/2000/svg" xmlns:xlink="http://www.w3.org/1999/xlink">
<defs>
<symbol id="new" viewBox="0 0 1024 1024">
<title>new</title>
<path class="path1" d="M895.97 0.040h-767.939c-70.394 0-127.99 57.595-127.99 127.99v767.939c0 70.394 57.595 127.99 127.99 127.99h767.939c70.394 0 127.99-57.595 127.99-127.99v-767.939c0-70.394-57.595-127.99-127.99-127.99zM831.975 575.995h-255.98v255.98h-127.99v-255.98h-255.98v-127.99h255.98v-255.98h127.99v255.98h255.98v127.99z"></path>
</symbol>
<symbol id="delete" viewBox="0 0 1024 1024">
<title>delete</title>
<path class="path1" d="M895.97 0.040h-767.939c-70.394 0-127.99 57.595-127.99 127.99v767.939c0 70.394 57.595 127.99 127.99 127.99h767.939c70.394 0 127.99-57.595 127.99-127.99v-767.939c0-70.394-57.595-127.99-127.99-127.99zM707.888 818.472l-195.888-195.825-195.888 195.825-110.648-110.584 195.888-195.888-195.825-195.888 110.648-110.648 195.825 195.888 195.761-195.888 110.648 110.648-195.761 195.888 195.825 195.888-110.584 110.584z"></path>
</symbol>
</defs>
</svg>